<svg width="864" height="864" viewBox="0 0 864 864" fill="none" xmlns="http://www.w3.org/2000/svg">
<path d="M256.032 177.286C256.032 153.273 231.269 145.769 211.758 142.017C199.752 139.766 196 133.013 196 124.758C196 116.504 200.502 109 212.509 109C229.768 109 264.286 112.002 329.571 112.002C377.596 112.002 423.37 109 450.385 109C566.696 109 642.487 169.032 642.487 260.58C642.487 332.618 598.213 385.146 522.423 406.908C607.968 427.168 668 493.954 668 573.496C668 683.054 584.706 754.342 456.388 754.342L329.571 752.841C265.787 752.841 229.768 754.342 212.509 754.342C200.502 754.342 196 746.838 196 738.583C196 730.329 199.752 723.575 211.758 721.324C231.269 717.572 256.032 710.068 256.032 686.056V177.286ZM387.351 665.795C387.351 698.812 399.358 713.07 435.377 713.07C496.909 713.07 529.176 666.545 529.176 576.498C529.176 484.199 494.658 436.173 429.374 436.173C399.358 436.173 387.351 441.426 387.351 472.943V665.795ZM426.372 391.149C477.399 391.149 503.663 347.626 503.663 265.083C503.663 189.293 476.649 150.272 424.871 150.272C395.606 150.272 387.351 158.526 387.351 188.542V355.881C387.351 383.645 398.607 391.149 426.372 391.149Z" fill="#111606"></path>
</svg>